<svg xmlns="http://www.w3.org/2000/svg" viewBox="0 0 64 64" role="img" aria-label="Cleo AI">
  <defs><radialGradient id="g" cx="65%" cy="32%"><stop stop-color="#2ba8ff"/><stop offset="1" stop-color="#06152c"/></radialGradient></defs>
  <rect width="64" height="64" rx="17" fill="#061427"/>
  <circle cx="32" cy="32" r="23" fill="url(#g)" stroke="#58caff"/>
  <path d="M31 18c-8 0-13 7-13 14 0 9 6 15 13 15 6 0 12-4 13-11-3 3-7 4-11 3-5-2-7-8-4-13 2-4 6-7 10-7-1-1-4-1-8-1Z" fill="#d5efff" opacity=".95"/>
  <path d="M35 33h8" stroke="#0b3771" stroke-width="2.5" stroke-linecap="round"/>
  <path d="M30 43c3 2 7 2 10 0" fill="none" stroke="#2870b5" stroke-width="2" stroke-linecap="round"/>
</svg>
